<?xml version="1.0" encoding="utf-8"?>
<!-- Generator: Adobe Illustrator 18.0.0, SVG Export Plug-In . SVG Version: 6.00 Build 0)  -->
<!DOCTYPE svg PUBLIC "-//W3C//DTD SVG 1.1//EN" "http://www.w3.org/Graphics/SVG/1.1/DTD/svg11.dtd">
<svg version="1.1" id="Layer_1" xmlns="http://www.w3.org/2000/svg" xmlns:xlink="http://www.w3.org/1999/xlink" x="0px" y="0px"
	 viewBox="0 0 14.9 26.2" enable-background="new 0 0 14.9 26.2" xml:space="preserve">
<g>
	<g>
		<path fill="#FFFFFF" d="M7.5,26.2c-0.3,0-0.5-0.1-0.8-0.3l-6.4-6.4c-0.4-0.4-0.4-1.1,0-1.5c0.4-0.4,1.1-0.4,1.5,0l6.4,6.4
			c0.4,0.4,0.4,1.1,0,1.5C8,26.1,7.7,26.2,7.5,26.2z"/>
	</g>
	<g>
		<path fill="#FFFFFF" d="M6.4,25.1c0-0.3,0.1-0.5,0.3-0.8l6.4-6.4c0.4-0.4,1.1-0.4,1.5,0c0.4,0.4,0.4,1.1,0,1.5l-6.4,6.4
			c-0.4,0.4-1.1,0.4-1.5,0C6.5,25.7,6.4,25.4,6.4,25.1z"/>
	</g>
</g>
<g>
	<path fill="#FFFFFF" d="M7.8,25.6c-0.6,0-1-0.5-1-1.1V1.1c0-0.6,0.4-1.1,1-1.1s1,0.5,1,1.1v23.5C8.8,25.1,8.4,25.6,7.8,25.6z"/>
</g>
</svg>
